<?xml version="1.0" standalone="no"?>
<!DOCTYPE svg PUBLIC "-//W3C//DTD SVG 20010904//EN"
 "http://www.w3.org/TR/2001/REC-SVG-20010904/DTD/svg10.dtd">
<svg version="1.0" xmlns="http://www.w3.org/2000/svg"
 width="864.000000pt" height="864.000000pt" viewBox="0 0 864.000000 864.000000"
 preserveAspectRatio="xMidYMid meet">
<metadata>
Created by potrace 1.14, written by Peter Selinger 2001-2017
</metadata>
<g transform="translate(0.000000,864.000000) scale(0.100000,-0.100000)"
fill="#000000" stroke="none">
<path d="M946 7044 c-32 -47 -56 -86 -55 -88 10 -7 853 -593 984 -683 145
-101 241 -185 229 -204 -3 -5 -1 -9 4 -9 4 0 16 -26 25 -57 19 -65 86 -300 92
-323 2 -8 15 -55 29 -105 14 -49 26 -95 26 -101 0 -6 -69 -30 -152 -54 -84
-23 -157 -46 -163 -51 -5 -5 -14 -28 -20 -51 l-10 -41 -340 -97 c-188 -53
-346 -100 -353 -104 -14 -9 -7 -97 10 -130 6 -11 12 -35 14 -52 5 -55 31 -106
51 -101 10 3 28 8 40 12 19 5 24 -1 43 -52 36 -95 100 -273 100 -280 0 -3 -15
-3 -32 0 -177 31 -231 41 -328 60 -41 8 -86 17 -100 20 -14 3 -90 19 -170 37
-80 17 -152 33 -160 35 -8 2 -44 10 -79 20 -88 22 -92 20 -74 -52 7 -32 16
-69 18 -83 6 -32 12 -64 25 -120 5 -25 12 -57 15 -72 3 -16 7 -40 10 -55 3
-16 8 -39 12 -53 3 -14 6 -28 5 -32 -1 -5 3 -8 9 -8 5 0 8 -4 5 -9 -6 -8 10
-110 21 -141 3 -8 7 -22 8 -30 4 -33 27 -136 32 -150 3 -8 5 -18 5 -23 -3 -12
28 -160 39 -189 6 -15 18 -30 27 -33 46 -19 330 -117 347 -121 11 -2 31 -8 45
-13 26 -10 193 -59 226 -66 116 -25 273 -69 269 -76 -3 -4 2 -15 11 -23 13
-13 29 -15 82 -10 37 3 72 6 77 6 14 1 88 -12 92 -16 4 -3 201 -543 244 -666
17 -47 34 -94 39 -105 5 -11 39 -103 76 -205 37 -102 71 -196 77 -210 6 -14
11 -27 11 -30 1 -3 21 -60 45 -128 49 -137 61 -151 150 -172 54 -13 244 -16
321 -6 22 4 59 8 83 11 301 38 777 185 1012 313 l70 38 69 -44 c176 -114 454
-236 711 -311 76 -23 148 -43 160 -45 11 -3 58 -13 105 -24 140 -32 246 -45
384 -45 143 -1 183 4 266 29 77 23 141 57 177 94 48 50 211 294 205 309 -2 8
0 11 5 8 17 -11 55 52 49 79 -4 14 -2 24 4 24 5 0 9 -4 8 -9 -2 -5 2 -8 7 -7
6 0 9 10 7 21 -1 14 0 16 7 7 6 -10 14 -3 31 25 12 21 22 40 23 43 0 3 7 10
15 16 8 6 12 16 8 22 -3 6 -1 14 5 18 8 4 9 3 5 -4 -4 -7 -5 -12 -3 -12 5 0
101 144 99 147 -1 2 10 14 24 28 17 17 24 33 21 46 -4 16 -3 18 8 9 9 -8 15
-3 25 20 7 16 17 30 22 30 5 0 6 5 3 10 -3 6 -2 10 3 10 11 0 81 100 103 147
8 18 19 30 23 26 4 -4 4 1 0 11 -5 14 -4 17 4 12 11 -6 17 5 13 27 0 4 3 6 9
5 7 -2 201 266 265 367 11 17 19 19 110 29 68 8 104 13 155 20 19 3 76 10 125
16 50 6 104 13 120 15 17 3 50 7 75 10 25 2 56 7 70 9 14 3 50 7 80 10 30 4
64 8 75 10 11 2 47 7 80 10 33 4 71 9 85 11 14 2 50 6 80 10 30 4 66 8 80 10
14 2 50 7 80 10 30 4 62 9 70 10 8 2 42 6 75 9 33 4 69 9 80 11 11 2 26 4 33
4 10 1 12 15 7 63 -4 34 -8 65 -10 68 -2 3 -11 56 -20 118 -9 62 -18 121 -20
130 -1 9 -8 53 -15 97 -7 44 -14 87 -15 96 -2 9 -6 34 -9 55 -4 22 -13 80 -21
129 -8 50 -24 151 -35 225 -12 74 -23 146 -25 160 -2 14 -7 43 -10 65 -4 22
-8 51 -10 65 -2 14 -11 70 -20 125 -9 55 -19 114 -21 130 -3 17 -7 44 -10 60
-3 17 -7 41 -8 55 -5 35 -16 111 -21 135 -1 11 -6 44 -10 74 -7 48 -11 54 -40
67 -24 10 -41 11 -66 3 -19 -6 -41 -12 -49 -14 -15 -3 -378 -109 -615 -178
-184 -54 -576 -168 -610 -177 -16 -5 -65 -18 -108 -30 -43 -13 -80 -20 -83
-17 -12 12 8 47 27 47 11 0 18 3 16 8 -4 6 474 322 695 460 29 18 113 72 185
120 73 48 218 142 322 210 l189 123 -27 57 c-15 31 -36 78 -46 103 -17 42 -58
79 -86 79 -6 0 -79 -47 -162 -103 -208 -142 -405 -276 -642 -435 -110 -75
-275 -186 -367 -249 -92 -62 -170 -113 -173 -113 -3 0 -30 24 -59 54 -31 31
-81 67 -120 86 -46 23 -68 40 -72 56 -3 13 -12 28 -20 35 -8 6 -14 27 -14 47
0 37 -21 61 -53 62 -16 0 -16 2 -2 29 27 53 29 123 6 169 -34 66 -76 88 -180
95 -27 2 -35 7 -38 25 -4 32 -30 79 -48 90 -14 7 -13 12 6 37 22 27 22 29 6
56 -15 27 -15 29 4 39 27 15 25 62 -5 97 -13 15 -26 42 -30 59 -13 61 -133
154 -198 154 -27 0 -68 -40 -68 -65 0 -9 -10 -8 -36 5 -26 14 -42 16 -60 10
-22 -9 -24 -7 -24 19 0 40 -46 160 -69 182 -16 15 -29 18 -68 13 -26 -4 -53
-11 -60 -16 -7 -6 -19 -5 -32 2 -20 10 -60 8 -80 -4 -5 -4 -12 -2 -16 4 -3 5
-17 10 -30 10 -14 0 -37 14 -57 34 -43 45 -88 53 -119 20 l-22 -24 -33 21 -33
20 -41 -26 c-24 -15 -40 -32 -37 -39 3 -8 -8 -23 -24 -35 -24 -18 -29 -29 -29
-63 0 -33 -3 -39 -12 -30 -47 47 -198 -48 -198 -124 0 -16 -1 -16 -20 1 -12
11 -26 15 -37 10 -40 -17 -102 -22 -145 -12 -22 4 -32 0 -50 -24 -13 -16 -38
-48 -57 -71 -31 -40 -33 -46 -27 -101 5 -53 3 -61 -17 -78 -12 -10 -30 -18
-40 -19 -10 0 -22 -12 -27 -26 -13 -34 -14 -32 20 -64 l30 -28 -40 -122 c-22
-67 -44 -136 -49 -153 -5 -18 -30 -97 -56 -177 -26 -80 -48 -149 -49 -155 -1
-5 -14 -46 -28 -90 -51 -154 -126 -391 -153 -478 -15 -49 -28 -87 -30 -85 -1
2 -12 53 -24 113 -27 139 -21 110 -76 390 -26 132 -48 251 -49 264 -1 19 6 27
34 36 32 11 35 15 33 49 -1 20 -9 51 -17 69 -9 18 -17 43 -20 57 -7 42 -36
101 -51 107 -9 3 -129 -27 -268 -67 -138 -39 -259 -74 -267 -76 -8 -2 -50 -13
-93 -25 l-79 -23 -28 32 c-15 18 -34 32 -42 32 -7 0 -82 -20 -165 -44 -133
-38 -153 -41 -158 -27 -8 20 -49 158 -80 271 -13 47 -37 133 -54 193 -17 59
-31 115 -31 125 0 10 -3 22 -7 26 -5 4 -8 11 -9 14 -2 18 -19 48 -31 55 -7 4
-13 12 -13 18 0 16 -46 54 -153 126 -56 37 -106 72 -112 76 -5 5 -104 74 -220
154 -115 81 -246 171 -290 202 -159 110 -331 231 -401 280 -39 28 -73 51 -75
51 -2 0 -30 -39 -63 -86z m3657 -909 c4 -8 2 -17 -3 -20 -6 -4 -10 3 -10 14 0
25 6 27 13 6z m-3973 -1608 c6 -32 10 -61 7 -63 -5 -5 -37 124 -37 143 1 21
19 -28 30 -80z m66 -9 c17 -80 17 -83 0 -69 -15 12 -36 92 -36 133 0 41 22 2
36 -64z m80 21 c20 -57 21 -114 4 -114 -16 0 -38 67 -39 123 -1 43 20 38 35
-9z m115 -12 c0 -7 3 -21 5 -32 10 -48 16 -105 9 -105 -27 0 -44 25 -55 84
-14 73 -9 91 21 76 10 -6 19 -16 20 -23z m128 -13 c7 -6 28 -129 24 -141 -3
-8 -12 -9 -33 -2 -24 9 -29 17 -34 57 -4 26 -9 60 -12 75 -5 26 -4 27 23 21
15 -4 30 -8 32 -10z m157 -40 c10 -13 28 -133 21 -141 -2 -2 -18 0 -35 3 -27
6 -32 12 -41 56 -6 27 -11 62 -11 79 0 27 2 29 28 23 15 -4 32 -13 38 -20z
m173 -28 c10 -12 17 -45 23 -106 3 -33 1 -35 -28 -38 -18 -2 -36 3 -43 12 -14
16 -27 103 -22 142 1 14 57 6 70 -10z m182 -52 c16 -30 32 -84 33 -114 1 -8
-7 -15 -16 -14 -76 3 -75 2 -84 101 l-7 65 28 -4 c19 -2 34 -13 46 -34z m-71
-448 c0 -2 -8 -10 -17 -17 -16 -13 -17 -12 -4 4 13 16 21 21 21 13z m-664
-251 c3 -22 8 -44 11 -50 4 -7 2 -7 -4 0 -6 6 -15 32 -21 59 -5 26 -6 44 -1
39 4 -4 11 -26 15 -48z m59 -2 c3 -21 9 -48 12 -60 3 -13 1 -23 -5 -23 -7 0
-25 42 -23 57 0 2 -4 16 -9 33 -6 23 -5 30 5 30 7 0 16 -17 20 -37z m74 -5 c5
-13 12 -42 16 -66 6 -35 4 -41 -8 -36 -19 7 -23 18 -32 78 -8 50 8 65 24 24z
m94 -20 c9 -8 19 -35 23 -65 6 -45 4 -53 -9 -53 -21 0 -33 24 -40 83 -7 49 -2
55 26 35z m134 -58 c15 -30 17 -100 3 -100 -20 0 -50 41 -50 69 0 16 -3 37 -6
46 -11 28 38 14 53 -15z m140 -33 c8 -12 11 -27 14 -62 2 -35 -1 -45 -14 -45
-26 0 -47 26 -53 65 -3 22 -8 42 -10 44 -2 2 1 10 7 17 12 15 41 5 56 -19z
m164 -54 c5 -13 9 -40 9 -59 0 -26 -4 -34 -18 -34 -25 0 -55 24 -58 46 -4 25
-6 66 -5 81 2 21 61 -7 72 -34z m152 -7 c10 10 24 -31 26 -78 2 -43 0 -48 -19
-48 -41 0 -58 18 -65 69 -8 61 -2 73 29 61 13 -5 26 -6 29 -4z m184 -53 c10
-14 6 -21 -25 -44 -20 -16 -40 -29 -43 -29 -3 0 -6 23 -8 51 l-2 51 33 -7 c18
-4 39 -14 45 -22z m5038 -272 c-3 -6 -14 -11 -23 -11 -15 1 -15 2 2 15 21 16
32 13 21 -4z m-109 -26 c-19 -29 -41 -29 -41 0 0 12 9 21 25 25 33 9 36 5 16
-25z m67 -88 c-33 -56 -140 -207 -146 -207 -7 0 99 164 131 201 19 22 27 25
15 6z m-188 -306 c3 -5 0 -13 -6 -17 -7 -4 -9 -3 -5 4 3 5 0 13 -6 15 -9 4
-10 6 -1 6 6 1 14 -3 18 -8z m-2395 -38 c0 -3 -7 -3 -15 1 -10 4 -15 -1 -16
-17 0 -12 -3 -16 -6 -9 -8 21 5 42 22 36 8 -3 15 -8 15 -11z m2364 2 c-4 -8
-11 -12 -16 -9 -6 4 -5 10 3 15 19 12 19 11 13 -6z m7 -28 c-10 -9 -11 -8 -5
6 3 10 9 15 12 12 3 -3 0 -11 -7 -18z m-17 -13 c3 -8 2 -12 -4 -9 -6 3 -10 10
-10 16 0 14 7 11 14 -7z m-2384 -8 c0 -2 -8 -10 -17 -17 -16 -13 -17 -12 -4 4
13 16 21 21 21 13z m50 -6 c0 -5 -4 -10 -10 -10 -5 0 -10 5 -10 10 0 6 5 10
10 10 6 0 10 -4 10 -10z m2304 -39 c-2 -3 -12 3 -22 13 -16 17 -16 18 5 5 12
-7 20 -15 17 -18z m-2339 1 c-3 -3 -11 0 -18 7 -9 10 -8 11 6 5 10 -3 15 -9
12 -12z m2307 -16 c7 4 8 2 4 -4 -4 -6 -13 -9 -21 -6 -8 4 -12 11 -8 17 5 8 8
7 11 -1 2 -7 9 -9 14 -6z m-15 -32 c-3 -3 -12 -4 -19 -1 -8 3 -5 6 6 6 11 1
17 -2 13 -5z m-2274 -19 c-3 -9 -8 -14 -10 -11 -3 3 -2 9 2 15 9 16 15 13 8
-4z m41 -31 c3 -8 2 -12 -4 -9 -6 3 -10 10 -10 16 0 14 7 11 14 -7z m-44 -4
c0 -5 -4 -10 -10 -10 -5 0 -10 5 -10 10 0 6 5 10 10 10 6 0 10 -4 10 -10z
m300 6 c0 -3 -4 -8 -10 -11 -5 -3 -10 -1 -10 4 0 6 5 11 10 11 6 0 10 -2 10
-4z m-206 -21 c-7 -18 -20 -19 -30 -3 -4 6 -3 8 4 4 6 -3 13 -2 17 4 9 15 15
12 9 -5z m204 -30 c-3 -3 -9 2 -12 12 -6 14 -5 15 5 6 7 -7 10 -15 7 -18z
m-232 -14 c-4 -6 -13 -11 -19 -10 -9 0 -9 2 1 6 6 2 12 9 12 14 0 6 -5 7 -12
3 -7 -5 -8 -3 -3 5 5 9 11 9 17 3 6 -6 7 -15 4 -21z m211 13 c-3 -3 -12 -4
-19 -1 -8 3 -5 6 6 6 11 1 17 -2 13 -5z m1443 -36 c0 -5 -5 -8 -11 -8 -5 0 -8
4 -4 9 3 5 1 12 -5 16 -5 3 -10 11 -10 18 0 12 29 -23 30 -35z m-1720 22 c0
-5 -4 -10 -10 -10 -5 0 -10 5 -10 10 0 6 5 10 10 10 6 0 10 -4 10 -10z m402
-8 c-7 -2 -9 -9 -5 -15 3 -7 2 -8 -2 -4 -16 14 -14 36 3 29 10 -4 12 -7 4 -10z
m1793 9 c-9 -8 -36 -10 -30 -2 2 4 11 8 20 8 8 0 13 -3 10 -6z m-2015 -21 c0
-5 -2 -10 -4 -10 -3 0 -8 5 -11 10 -3 6 -1 10 4 10 6 0 11 -4 11 -10z m102 3
c-6 -2 -10 -9 -6 -14 3 -5 0 -9 -5 -9 -12 0 -14 13 -4 23 3 4 11 7 17 6 6 0 5
-3 -2 -6z m147 -18 c10 5 8 -41 -2 -51 -3 -4 -5 3 -2 14 2 12 0 24 -6 27 -5 4
-9 12 -8 18 0 9 2 8 6 -1 2 -6 8 -10 12 -7z m-435 -11 c3 -8 2 -12 -4 -9 -6 3
-10 10 -10 16 0 14 7 11 14 -7z m166 6 c0 -5 -7 -7 -15 -4 -8 4 -15 8 -15 10
0 2 7 4 15 4 8 0 15 -4 15 -10z m1530 1 c0 -5 -7 -12 -16 -15 -14 -5 -15 -4
-4 9 14 17 20 19 20 6z m43 -6 c-3 -9 -8 -14 -10 -11 -3 3 -2 9 2 15 9 16 15
13 8 -4z m-1693 -5 c8 -5 11 -10 5 -10 -5 0 -17 5 -25 10 -8 5 -10 10 -5 10 6
0 17 -5 25 -10z m200 -45 c0 -2 -7 -1 -17 2 -12 5 -14 3 -8 -7 5 -9 4 -11 -4
-6 -6 4 -8 12 -5 18 5 7 2 9 -8 6 -8 -4 -15 0 -15 7 0 11 6 11 29 -1 15 -8 28
-17 28 -19z m170 13 c0 -6 -6 -5 -15 2 -8 7 -15 14 -15 16 0 2 7 1 15 -2 8 -4
15 -11 15 -16z m-350 8 c0 -3 -4 -8 -10 -11 -5 -3 -10 -1 -10 4 0 6 5 11 10
11 6 0 10 -2 10 -4z m85 -5 c-9 -8 -36 -10 -30 -2 2 4 11 8 20 8 8 0 13 -3 10
-6z m1562 -13 c-3 -8 -6 -5 -6 6 -1 11 2 17 5 13 3 -3 4 -12 1 -19z m-1534
-24 c-4 -11 -9 -12 -19 -3 -19 15 -18 20 3 12 12 -5 14 -3 8 7 -5 8 -4 11 3 6
6 -4 9 -13 5 -22z m221 18 c2 -4 -5 -9 -17 -9 -17 -2 -19 0 -7 7 18 12 18 12
24 2z m140 -3 c-4 -8 1 -9 17 -5 20 6 21 5 6 -4 -19 -12 -41 -4 -32 11 4 5 8
9 11 9 3 0 2 -5 -2 -11z m-412 -6 c-6 -2 -10 -9 -7 -13 3 -5 1 -11 -4 -14 -7
-5 -8 11 -2 32 1 1 7 2 14 1 9 0 9 -2 -1 -6z m1680 -16 c-7 -8 -9 -17 -5 -20
3 -4 1 -7 -5 -7 -7 0 -12 2 -12 5 0 10 24 44 29 40 2 -3 -1 -11 -7 -18z
m-1522 3 c0 -5 -9 -7 -20 -5 -11 2 -24 -3 -30 -13 -5 -9 -10 -12 -10 -6 0 5 4
14 10 20 12 12 50 16 50 4z m317 -5 c0 -8 -4 -12 -9 -9 -4 3 -8 9 -8 15 0 5 4
9 8 9 5 0 9 -7 9 -15z m-86 -28 c-10 -9 -11 -8 -5 6 3 10 9 15 12 12 3 -3 0
-11 -7 -18z m52 3 c-3 -11 -9 -20 -15 -20 -5 0 -4 9 2 20 6 11 12 20 14 20 2
0 2 -9 -1 -20z m-290 -3 c3 -8 -1 -14 -8 -14 -7 0 -11 6 -8 14 3 7 6 13 8 13
2 0 5 -6 8 -13z m55 -4 c-6 -7 -12 -13 -13 -13 -2 0 -5 6 -8 13 -3 7 3 13 14
13 13 0 15 -3 7 -13z m1255 -4 c-8 -8 -13 -7 -18 2 -5 8 -4 10 3 5 7 -4 12 -2
12 5 0 7 3 9 7 6 4 -4 2 -12 -4 -18z m-1558 1 c3 -5 1 -10 -4 -10 -6 0 -11 5
-11 10 0 6 2 10 4 10 3 0 8 -4 11 -10z m72 -12 c2 -18 0 -20 -7 -8 -12 18 -13
30 -2 30 4 0 9 -10 9 -22z m613 12 c0 -5 -2 -10 -4 -10 -3 0 -8 5 -11 10 -3 6
-1 10 4 10 6 0 11 -4 11 -10z m897 -12 c-3 -8 -6 -5 -6 6 -1 11 2 17 5 13 3
-3 4 -12 1 -19z m160 0 c-3 -8 -6 -5 -6 6 -1 11 2 17 5 13 3 -3 4 -12 1 -19z
m-1017 8 c0 -2 -7 -7 -16 -10 -8 -3 -12 -2 -9 4 6 10 25 14 25 6z m1330 -17
c0 -5 -4 -9 -8 -9 -5 0 -9 7 -9 15 0 8 4 12 9 9 4 -3 8 -9 8 -15z m-1843 4
c-4 -3 -1 -13 6 -22 11 -14 10 -14 -5 -2 -21 15 -23 31 -6 31 6 0 8 -3 5 -7z
m123 -2 c0 -6 -4 -12 -8 -15 -5 -3 -9 1 -9 9 0 8 4 15 9 15 4 0 8 -4 8 -9z
m405 -1 c-3 -5 -12 -10 -18 -10 -7 0 -6 4 3 10 19 12 23 12 15 0z m792 -5 c0
-8 -4 -12 -9 -9 -4 3 -8 9 -8 15 0 5 4 9 8 9 5 0 9 -7 9 -15z m77 -1 c3 -8 2
-12 -4 -9 -6 3 -10 10 -10 16 0 14 7 11 14 -7z m-1061 -9 c4 -8 3 -16 -1 -19
-4 -3 -9 4 -9 15 -2 23 3 25 10 4z m145 -10 c-3 -3 -9 2 -12 12 -6 14 -5 15 5
6 7 -7 10 -15 7 -18z m806 1 c-3 -9 -10 -16 -15 -16 -5 0 -4 9 3 20 14 22 21
20 12 -4z m-1429 -4 c-3 -3 -11 0 -18 7 -9 10 -8 11 6 5 10 -3 15 -9 12 -12z
m108 1 c-5 -12 -3 -14 7 -8 9 6 11 4 5 -4 -5 -9 -11 -9 -17 -3 -6 6 -7 15 -4
21 11 17 16 13 9 -6z m106 3 c9 -10 8 -15 -3 -19 -9 -4 -18 -1 -22 5 -5 7 -2
8 6 3 10 -6 12 -4 7 8 -8 21 -3 22 12 3z m80 0 c9 -10 8 -15 -3 -19 -11 -4
-13 -1 -9 10 5 12 3 14 -7 8 -9 -5 -11 -4 -6 3 9 15 11 15 25 -2z m145 5 c4
-5 -3 -7 -14 -4 -23 6 -26 13 -6 13 8 0 17 -4 20 -9z m1069 -8 c-5 -12 -3 -14
7 -8 8 5 11 4 6 -3 -4 -6 -13 -9 -22 -5 -11 4 -12 9 -3 19 15 19 20 18 12 -3z
m177 -18 c0 -5 -5 -3 -10 5 -5 8 -10 20 -10 25 0 6 5 3 10 -5 5 -8 10 -19 10
-25z m270 1 c-7 -7 -15 -5 -22 3 -11 10 -10 11 5 5 14 -5 16 -2 11 12 -5 16
-4 16 5 4 6 -9 7 -18 1 -24z m-166 6 c3 -5 -1 -9 -9 -9 -8 0 -12 4 -9 9 3 4 7
8 9 8 2 0 6 -4 9 -8z m-1648 -19 c-2 -9 -9 -19 -17 -21 -11 -3 -11 -1 1 7 8 6
11 11 7 11 -5 0 -5 5 -2 10 9 15 14 12 11 -7z m48 2 c11 -8 16 -15 10 -15 -5
0 -18 7 -28 15 -11 8 -16 15 -10 15 5 0 18 -7 28 -15z m430 0 c-23 -17 -34
-19 -34 -4 0 5 4 8 9 4 5 -3 12 -1 16 5 3 5 11 10 18 10 6 0 2 -7 -9 -15z
m-360 -7 c-3 -4 -11 -5 -19 -1 -21 7 -19 12 4 10 11 0 18 -5 15 -9z m120 -4
c3 -8 2 -12 -4 -9 -6 3 -10 10 -10 16 0 14 7 11 14 -7z m400 0 c3 -8 2 -12 -4
-9 -6 3 -10 10 -10 16 0 14 7 11 14 -7z m41 -3 c-3 -6 -11 -11 -16 -11 -5 0
-4 6 3 14 14 16 24 13 13 -3z m629 7 c-3 -4 -9 -8 -15 -8 -5 0 -9 4 -9 8 0 5
7 9 15 9 8 0 12 -4 9 -9z m46 2 c8 -5 11 -10 5 -10 -5 0 -17 5 -25 10 -8 5
-10 10 -5 10 6 0 17 -5 25 -10z m85 -10 c-3 -5 -12 -10 -18 -10 -7 0 -6 4 3
10 19 12 23 12 15 0z m-1475 -6 c0 -8 -19 -13 -24 -6 -3 5 1 9 9 9 8 0 15 -2
15 -3z m163 -9 c-3 -9 -8 -14 -10 -11 -3 3 -2 9 2 15 9 16 15 13 8 -4z m80 -2
c-3 -7 -9 -13 -15 -13 -5 0 -7 4 -4 9 4 5 0 11 -6 14 -7 3 -3 4 8 4 14 -1 20
-6 17 -14z m70 0 c-3 -7 -6 -13 -8 -13 -2 0 -5 6 -8 13 -3 8 1 14 8 14 7 0 11
-6 8 -14z m210 -3 c-6 -21 -25 -28 -20 -7 2 10 16 26 24 27 0 0 -1 -9 -4 -20z
m120 3 c-5 -12 -3 -14 7 -8 8 5 11 4 6 -3 -4 -6 -13 -9 -22 -5 -11 4 -12 9 -3
19 15 19 20 18 12 -3z m719 10 c-6 -2 -10 -9 -6 -14 3 -5 -2 -12 -10 -15 -9
-3 -13 -11 -9 -17 4 -6 1 -7 -7 -2 -10 6 -9 11 5 22 11 7 15 13 11 13 -4 0 -4
5 -1 10 3 6 12 10 18 9 9 0 8 -2 -1 -6z m75 1 c-3 -3 -12 -4 -19 -1 -8 3 -5 6
6 6 11 1 17 -2 13 -5z m243 -9 c0 -1 -10 -10 -22 -21 -13 -10 -17 -12 -10 -4
15 18 16 34 0 24 -7 -4 -8 -3 -4 4 5 9 36 7 36 -3z m123 0 c-3 -9 -8 -14 -10
-11 -3 3 -2 9 2 15 9 16 15 13 8 -4z m-1861 -26 c33 -24 32 -20 12 -67 -9 -20
-17 -46 -20 -56 -9 -44 -45 -46 -97 -4 l-28 23 20 58 c11 31 23 62 27 68 8 14
50 3 86 -22z m938 22 c0 -17 -21 -24 -33 -12 -9 9 -7 10 7 5 13 -5 17 -4 12 4
-4 7 -2 12 3 12 6 0 11 -4 11 -9z m-679 -14 c-6 -8 -8 -17 -4 -20 3 -4 1 -7
-5 -7 -15 0 -15 13 0 28 16 16 23 15 9 -1z m1030 -14 c-12 -20 -14 -14 -5 12
4 9 9 14 11 11 3 -2 0 -13 -6 -23z m244 17 c3 -5 1 -10 -4 -10 -6 0 -11 5 -11
10 0 6 2 10 4 10 3 0 8 -4 11 -10z m-1382 -7 c3 -5 -8 -8 -23 -8 -15 0 -26 3
-23 8 2 4 13 7 23 7 10 0 21 -3 23 -7z m187 -13 c0 -5 -4 -10 -10 -10 -5 0
-10 5 -10 10 0 6 5 10 10 10 6 0 10 -4 10 -10z m115 0 c3 -5 1 -10 -4 -10 -6
0 -11 5 -11 10 0 6 2 10 4 10 3 0 8 -4 11 -10z m281 -13 c0 -14 -7 -23 -18
-23 -15 0 -16 2 -3 16 8 9 12 20 8 23 -3 4 -2 7 4 7 6 0 10 -10 9 -23z m594
13 c-8 -5 -19 -10 -25 -10 -5 0 -3 5 5 10 8 5 20 10 25 10 6 0 3 -5 -5 -10z
m130 0 c0 -5 -4 -10 -10 -10 -5 0 -10 5 -10 10 0 6 5 10 10 10 6 0 10 -4 10
-10z m-1250 -22 c0 -6 -6 -5 -15 2 -8 7 -15 14 -15 16 0 2 7 1 15 -2 8 -4 15
-11 15 -16z m187 0 c-3 -8 -6 -5 -6 6 -1 11 2 17 5 13 3 -3 4 -12 1 -19z m93
7 c5 3 12 0 16 -6 4 -8 3 -9 -4 -5 -7 4 -12 1 -12 -6 0 -9 -3 -9 -10 2 -5 8
-9 20 -9 25 0 6 3 4 6 -3 2 -6 9 -10 13 -7z m625 5 c-3 -5 -16 -10 -28 -9 -20
1 -20 2 3 9 14 4 26 8 28 9 2 1 0 -3 -3 -9z m235 -5 c-7 -8 -18 -15 -24 -15
-6 0 -2 7 8 15 25 19 32 19 16 0z m166 6 c-4 -5 -1 -11 6 -13 7 -3 5 -7 -6
-11 -10 -4 -15 -3 -11 3 3 6 0 10 -7 10 -9 0 -9 3 2 10 19 12 23 12 16 1z m64
-17 c0 -2 -9 0 -20 6 -11 6 -20 13 -20 16 0 2 9 0 20 -6 11 -6 20 -13 20 -16z
m-1796 1 c-4 -8 -11 -15 -16 -15 -6 0 -5 6 2 15 7 8 14 15 16 15 2 0 1 -7 -2
-15z m519 -9 c6 -14 -28 -15 -40 -1 -5 4 -2 4 6 0 11 -6 13 -4 8 8 -4 11 -2
14 8 11 7 -3 16 -11 18 -18z m120 9 c-3 -9 -8 -14 -10 -11 -3 3 -2 9 2 15 9
16 15 13 8 -4z m487 5 c8 -5 11 -10 5 -10 -5 0 -17 5 -25 10 -8 5 -10 10 -5
10 6 0 17 -5 25 -10z m345 0 c3 -6 -1 -7 -9 -4 -18 7 -21 14 -7 14 6 0 13 -4
16 -10z m140 -8 c-3 -3 -11 0 -18 7 -9 10 -8 11 6 5 10 -3 15 -9 12 -12z m41
6 c5 -7 3 -8 -6 -3 -9 6 -12 4 -8 -7 4 -8 0 -15 -7 -15 -10 0 -11 5 -4 19 11
21 15 22 25 6z m264 2 c0 -5 -2 -10 -4 -10 -3 0 -8 5 -11 10 -3 6 -1 10 4 10
6 0 11 -4 11 -10z m-1455 -20 c-3 -5 -12 -10 -18 -10 -7 0 -6 4 3 10 19 12 23
12 15 0z m295 3 c-1 -13 -30 -48 -30 -36 0 7 5 15 10 18 6 4 8 11 5 16 -4 5
-1 9 4 9 6 0 11 -3 11 -7z m1145 -2 c3 -5 0 -13 -6 -17 -7 -4 -9 -3 -5 4 3 5
0 13 -6 15 -9 4 -10 6 -1 6 6 1 14 -3 18 -8z m135 -1 c0 -5 -4 -10 -10 -10 -5
0 -10 5 -10 10 0 6 5 10 10 10 6 0 10 -4 10 -10z m-926 -14 c-10 -8 -21 -12
-24 -10 -5 6 21 24 34 24 6 0 1 -6 -10 -14z m480 0 c-10 -8 -21 -12 -24 -10
-5 6 21 24 34 24 6 0 1 -6 -10 -14z m116 -1 c5 3 11 1 14 -4 4 -5 -2 -8 -11
-7 -9 2 -18 8 -19 15 -1 6 0 7 3 1 2 -5 9 -8 13 -5z m-1150 1 c0 -2 -7 -7 -16
-10 -8 -3 -12 -2 -9 4 6 10 25 14 25 6z m48 -21 c-3 -3 -9 2 -12 12 -6 14 -5
15 5 6 7 -7 10 -15 7 -18z m37 15 c-3 -5 -12 -10 -18 -10 -7 0 -6 4 3 10 19
12 23 12 15 0z m70 -8 c-3 -3 -11 0 -18 7 -9 10 -8 11 6 5 10 -3 15 -9 12 -12z
m75 3 c11 -13 10 -14 -5 -9 -14 6 -16 4 -10 -6 5 -8 4 -11 -3 -6 -6 4 -9 13
-5 21 7 19 8 19 23 0z m550 5 c0 -5 -4 -10 -10 -10 -5 0 -10 5 -10 10 0 6 5
10 10 10 6 0 10 -4 10 -10z m119 7 c-2 -1 -13 -9 -24 -17 -19 -14 -19 -14 -6
3 7 9 18 17 24 17 6 0 8 -1 6 -3z m221 -1 c0 -2 -7 -7 -16 -10 -8 -3 -12 -2
-9 4 6 10 25 14 25 6z m100 -6 c0 -5 -4 -10 -10 -10 -5 0 -10 5 -10 10 0 6 5
10 10 10 6 0 10 -4 10 -10z m-1343 -26 c41 -18 42 -38 5 -114 -30 -60 -36 -62
-102 -31 -41 19 -42 34 -4 119 26 58 24 58 101 26z m398 16 c-3 -5 -12 -10
-18 -10 -7 0 -6 4 3 10 19 12 23 12 15 0z m640 0 c-3 -5 -12 -10 -18 -10 -7 0
-6 4 3 10 19 12 23 12 15 0z m-793 -19 c-4 -10 -1 -12 8 -6 8 5 11 4 6 -3 -8
-13 -32 -6 -39 12 -3 6 3 12 13 12 11 0 16 -5 12 -15z m828 -6 c0 -7 -6 -15
-13 -18 -8 -3 -14 1 -14 9 0 7 5 10 10 7 6 -4 8 1 4 11 -4 10 -3 15 3 11 6 -3
10 -12 10 -20z m47 18 c-4 -3 0 -15 10 -25 20 -22 11 -24 -11 -2 -19 18 -21
34 -4 34 6 0 8 -3 5 -7z m443 -3 c0 -5 -5 -10 -11 -10 -5 0 -7 5 -4 10 3 6 8
10 11 10 2 0 4 -4 4 -10z m-1104 -28 c-4 -3 -14 2 -24 12 -16 18 -16 18 6 6
13 -6 21 -14 18 -18z m765 1 c-12 -20 -14 -14 -5 12 4 9 9 14 11 11 3 -2 0
-13 -6 -23z m78 -18 c0 -5 -4 -3 -9 5 -5 8 -9 22 -9 30 0 16 17 -16 18 -35z
m-1125 19 c3 -8 2 -12 -4 -9 -6 3 -10 10 -10 16 0 14 7 11 14 -7z m143 -6 c-3
-8 -6 -5 -6 6 -1 11 2 17 5 13 3 -3 4 -12 1 -19z m63 7 c0 -8 -2 -15 -4 -15
-2 0 -6 7 -10 15 -3 8 -1 15 4 15 6 0 10 -7 10 -15z m480 11 c0 -3 -4 -8 -10
-11 -5 -3 -10 -1 -10 4 0 6 5 11 10 11 6 0 10 -2 10 -4z m320 0 c0 -2 -7 -7
-16 -10 -8 -3 -12 -2 -9 4 6 10 25 14 25 6z m-630 -10 c0 -2 -7 -7 -16 -10 -8
-3 -12 -2 -9 4 6 10 25 14 25 6z m-275 -15 c-3 -6 3 -14 12 -20 10 -6 13 -11
8 -11 -13 0 -35 20 -35 32 0 4 5 8 11 8 5 0 8 -4 4 -9z m75 -16 c-14 -17 -30
-20 -30 -4 0 5 5 7 10 4 6 -3 13 1 16 10 4 9 9 14 12 11 3 -3 -1 -12 -8 -21z
m229 2 c0 -9 -2 -9 -5 0 -3 7 -13 9 -22 6 -14 -4 -14 -3 -2 5 16 12 30 7 29
-11z m596 13 c-3 -5 -2 -10 4 -10 5 0 12 6 14 13 4 9 6 9 6 0 1 -15 -16 -26
-29 -18 -10 6 -5 25 6 25 3 0 2 -4 -1 -10z m-741 -14 c-10 -8 -21 -12 -24 -10
-5 6 21 24 34 24 6 0 1 -6 -10 -14z m51 -4 c-3 -3 -11 0 -18 7 -9 10 -8 11 6
5 10 -3 15 -9 12 -12z m33 -7 c-3 -3 -9 2 -12 12 -6 14 -5 15 5 6 7 -7 10 -15
7 -18z m86 1 c-3 -9 -10 -16 -15 -16 -5 0 -4 9 3 20 14 22 21 20 12 -4z m435
11 c8 -10 7 -14 -2 -14 -8 0 -14 6 -14 14 0 7 1 13 2 13 2 0 8 -6 14 -13z
m493 -19 c-8 -8 -9 -4 -5 13 4 13 8 18 11 10 2 -7 -1 -18 -6 -23z m-1141 5
c13 -16 12 -17 -3 -4 -17 13 -22 21 -14 21 2 0 10 -8 17 -17z m286 11 c-8 -8
-48 -13 -43 -6 2 4 14 8 26 9 12 1 20 0 17 -3z m423 -6 c0 -6 -3 -8 -7 -5 -3
4 -13 1 -22 -6 -14 -11 -14 -10 -2 6 15 20 31 22 31 5z m130 -3 c7 -9 8 -15 2
-15 -5 0 -12 7 -16 15 -3 8 -4 15 -2 15 2 0 9 -7 16 -15z m55 5 c3 -6 -1 -7
-9 -4 -18 7 -21 14 -7 14 6 0 13 -4 16 -10z m115 -2 c0 -4 -7 -8 -15 -8 -8 0
-15 4 -15 8 0 5 7 9 15 9 8 0 15 -4 15 -9z m-1133 -54 c7 -20 -53 -144 -70
-144 -22 0 -81 21 -95 35 -11 10 -8 23 13 71 34 79 44 85 101 66 25 -8 48 -21
51 -28z m108 36 c3 -5 1 -10 -4 -10 -6 0 -11 5 -11 10 0 6 2 10 4 10 3 0 8 -4
11 -10z m416 -32 c-11 -11 -13 -10 -8 3 3 9 1 22 -4 28 -5 6 -1 4 8 -4 14 -12
15 -17 4 -27z m90 18 c13 -9 19 -16 14 -16 -6 0 -18 7 -28 15 -11 7 -27 12
-38 10 -10 -2 -21 0 -24 4 -8 15 52 4 76 -13z m35 6 c-10 -2 -22 0 -28 6 -6 6
0 7 19 4 21 -5 23 -7 9 -10z m441 -2 c1 -11 -2 -20 -5 -20 -4 0 -8 9 -9 20 -1
11 2 20 5 20 4 0 8 -9 9 -20z m-827 6 c0 -2 -7 -7 -16 -10 -8 -3 -12 -2 -9 4
6 10 25 14 25 6z m25 -16 c-3 -4 0 -11 5 -13 6 -3 5 -4 -1 -3 -7 1 -13 10 -15
19 -1 9 2 15 7 11 5 -3 7 -9 4 -14z m110 1 c-3 -6 -11 -11 -16 -11 -5 0 -4 6
3 14 14 16 24 13 13 -3z m64 -15 c0 -7 -2 -6 -6 2 -2 6 -8 10 -12 8 -4 -3 -8
1 -8 9 0 11 4 12 14 4 7 -6 13 -17 12 -23z m230 27 c-3 -21 2 -33 13 -27 7 5
8 3 3 -5 -6 -10 -11 -10 -22 2 -9 8 -12 20 -9 26 8 13 17 15 15 4z m58 -15
c-3 -8 -6 -5 -6 6 -1 11 2 17 5 13 3 -3 4 -12 1 -19z m30 0 c-3 -8 -6 -5 -6 6
-1 11 2 17 5 13 3 -3 4 -12 1 -19z m61 -14 c-12 -12 -17 -13 -23 -3 -5 8 -4
10 3 5 11 -7 17 6 12 29 -1 6 4 4 11 -3 11 -10 10 -15 -3 -28z m-657 3 c-10
-9 -11 -8 -5 6 3 10 9 15 12 12 3 -3 0 -11 -7 -18z m159 19 c0 -2 -8 -10 -17
-17 -16 -13 -17 -12 -4 4 13 16 21 21 21 13z m570 -6 c0 -5 -4 -10 -10 -10 -5
0 -10 5 -10 10 0 6 5 10 10 10 6 0 10 -4 10 -10z m40 -2 c0 -4 -4 -8 -9 -8 -6
0 -12 4 -15 8 -3 5 1 9 9 9 8 0 15 -4 15 -9z m60 8 c0 -3 -4 -8 -10 -11 -5 -3
-10 -1 -10 4 0 6 5 11 10 11 6 0 10 -2 10 -4z m220 -6 c0 -5 -5 -10 -11 -10
-5 0 -7 5 -4 10 3 6 8 10 11 10 2 0 4 -4 4 -10z m-976 -22 c-2 -4 -14 -5 -26
-3 -32 7 -32 13 1 11 16 0 27 -4 25 -8z m118 -6 c-7 -2 -10 -7 -8 -11 3 -4 -1
-8 -8 -8 -8 0 -12 7 -8 15 4 11 1 13 -8 7 -8 -5 -11 -4 -7 3 4 5 17 8 29 4 12
-3 17 -7 10 -10z m129 -7 c5 4 9 1 9 -4 0 -6 -4 -11 -8 -11 -12 0 -32 22 -32
35 0 5 5 2 11 -8 6 -9 14 -15 20 -12z m52 -6 c-8 -8 -13 -7 -18 2 -6 8 -4 10
5 4 10 -6 12 -4 6 11 -6 15 -5 17 5 7 9 -10 10 -16 2 -24z m113 19 c5 -7 3 -8
-6 -3 -10 6 -12 4 -6 -10 5 -15 4 -16 -9 -5 -13 11 -13 15 -3 21 17 11 16 11
24 -3z m50 -16 c-17 -16 -18 -16 -5 5 7 12 15 20 18 17 3 -2 -3 -12 -13 -22z
m94 3 c14 -19 14 -19 -2 -6 -10 7 -18 18 -18 24 0 6 1 8 3 6 1 -2 9 -13 17
-24z m80 10 c0 -1 -7 -8 -15 -15 -13 -11 -14 -10 -9 5 6 14 4 16 -6 10 -8 -5
-11 -4 -6 3 5 9 36 7 36 -3z m154 3 c-5 -7 -2 -9 9 -5 11 4 14 2 10 -9 -4 -11
-9 -12 -19 -3 -12 10 -11 29 2 29 3 0 2 -5 -2 -12z m-624 -20 c0 -6 -6 -5 -15
2 -8 7 -15 14 -15 16 0 2 7 1 15 -2 8 -4 15 -11 15 -16z m351 12 c9 13 10 13
6 0 -2 -8 -10 -15 -17 -15 -7 0 -15 7 -17 15 -4 13 -3 13 6 0 10 -13 12 -13
22 0z m359 -9 c0 -13 -29 -8 -34 5 -3 7 2 10 15 7 10 -3 19 -9 19 -12z m-820
-1 c0 -5 -2 -10 -4 -10 -3 0 -8 5 -11 10 -3 6 -1 10 4 10 6 0 11 -4 11 -10z
m150 6 c0 -2 -8 -10 -17 -17 -16 -13 -17 -12 -4 4 13 16 21 21 21 13z m150
-10 c0 -2 -9 -6 -20 -9 -11 -3 -18 -1 -14 4 5 9 34 13 34 5z m73 -11 c-3 -9
-8 -14 -10 -11 -3 3 -2 9 2 15 9 16 15 13 8 -4z m261 6 c4 -5 -3 -7 -14 -4
-23 6 -26 13 -6 13 8 0 17 -4 20 -9z m-751 -12 c21 -5 40 -16 43 -24 6 -14
-49 -129 -66 -140 -16 -10 -110 17 -110 31 0 16 43 109 60 129 15 18 23 18 73
4z m212 -7 c-3 -3 -11 0 -18 7 -9 10 -8 11 6 5 10 -3 15 -9 12 -12z m59 6 c-5
-8 -2 -9 11 -4 15 5 16 4 5 -9 -10 -12 -15 -13 -21 -3 -7 12 -3 28 7 28 3 0 2
-5 -2 -12z m576 8 c0 -2 -7 -7 -16 -10 -8 -3 -12 -2 -9 4 6 10 25 14 25 6z
m50 -6 c0 -5 -4 -10 -10 -10 -5 0 -10 5 -10 10 0 6 5 10 10 10 6 0 10 -4 10
-10z m-426 -15 c3 -8 1 -15 -4 -15 -6 0 -10 7 -10 15 0 8 2 15 4 15 2 0 6 -7
10 -15z m47 -8 c-10 -9 -11 -8 -5 6 3 10 9 15 12 12 3 -3 0 -11 -7 -18z m89 8
c-7 -9 -15 -13 -19 -10 -3 3 1 10 9 15 21 14 24 12 10 -5z m67 -7 c-3 -8 -6
-5 -6 6 -1 11 2 17 5 13 3 -3 4 -12 1 -19z m20 -10 c-3 -8 -6 -5 -6 6 -1 11 2
17 5 13 3 -3 4 -12 1 -19z m-113 -4 c3 -8 2 -12 -4 -9 -6 3 -10 10 -10 16 0
14 7 11 14 -7z m376 -1 c0 -5 -9 -19 -20 -33 -17 -21 -19 -21 -14 -5 4 15 3
17 -4 6 -6 -8 -8 -20 -5 -26 5 -14 -74 -102 -83 -93 -9 10 80 138 93 133 6 -2
14 3 17 11 6 15 16 19 16 7z m-666 -29 c34 -6 35 -26 6 -78 -41 -72 -57 -87
-83 -82 -83 15 -98 19 -103 27 -5 8 45 108 69 137 10 12 26 12 111 -4z m512
-29 c-9 -24 -86 -135 -94 -135 -4 -1 -24 -3 -45 -6 l-38 -6 44 69 c44 69 73
93 116 93 17 0 22 -4 17 -15z m-214 -7 c5 -13 -66 -133 -85 -145 -14 -8 -99
-5 -109 5 -9 9 55 121 80 140 21 16 109 16 114 0z"/>
</g>
</svg>
